<svg width="64" height="64" viewBox="0 0 64 64" fill="none" xmlns="http://www.w3.org/2000/svg">
<path fill-rule="evenodd" clip-rule="evenodd" d="M37.5902 2.32933e-06H45.0117C47.5537 -5.56707e-05 49.6925 -0.000105383 51.4432 0.143702C53.2745 0.294127 55.0189 0.621066 56.6759 1.46986C59.1999 2.76278 61.252 4.82583 62.538 7.36333C63.3823 9.02918 63.7075 10.7829 63.8571 12.624C64.0001 14.3842 64.0001 16.5344 64 19.0901V26.1671C64.0001 28.7227 64.0001 30.873 63.8571 32.6331C63.7075 34.4742 63.3823 36.228 62.538 37.8938C61.252 40.4313 59.1999 42.4944 56.6759 43.7873C55.0189 44.6361 53.2745 44.963 51.4432 45.1134C49.6925 45.2573 47.5537 45.2572 45.0116 45.2571H22.849C21.2922 45.2571 19.8874 44.3182 19.285 42.875C18.6826 41.4318 19.0003 39.7662 20.0909 38.6493L38.3929 19.9064L43.909 25.3507L32.0595 37.4857H44.8568C47.5945 37.4857 49.4154 37.4827 50.8138 37.3678C52.167 37.2567 52.7809 37.0604 53.1665 36.8629C54.236 36.315 55.1055 35.4409 55.6505 34.3657C55.847 33.978 56.0422 33.3608 56.1527 32.0003C56.267 30.5944 56.27 28.7638 56.27 26.0114V19.2457C56.27 16.4933 56.267 14.6628 56.1527 13.2569C56.0422 11.8964 55.847 11.2792 55.6505 10.8915C55.1055 9.81627 54.236 8.9421 53.1665 8.39425C52.7809 8.19671 52.167 8.00048 50.8138 7.88932C49.4154 7.77446 47.5945 7.77143 44.8568 7.77143H37.7462C34.9785 7.77143 33.1365 7.77449 31.7227 7.89119C30.3535 8.00421 29.7346 8.20376 29.3477 8.40378C28.2718 8.95991 27.4004 9.84667 26.8604 10.935C26.6662 11.3265 26.4753 11.9511 26.3795 13.3288C26.2807 14.7515 26.3001 16.6033 26.3339 19.3856L26.3726 22.5812L18.6432 22.676L18.6025 19.3236C18.5711 16.7393 18.5447 14.5664 18.6683 12.7874C18.7975 10.9275 19.1059 9.15372 19.9432 7.46612C21.2176 4.89756 23.274 2.80481 25.8131 1.49234C27.4814 0.630014 29.2419 0.298396 31.0901 0.14583C32.858 -0.000105834 35.0195 -5.6131e-05 37.5902 2.32933e-06Z" fill="url(#paint0_linear_1_75)"/>
<path fill-rule="evenodd" clip-rule="evenodd" d="M37.5902 2.32933e-06H45.0117C47.5537 -5.56707e-05 49.6925 -0.000105383 51.4432 0.143702C53.2745 0.294127 55.0189 0.621066 56.6759 1.46986C59.1999 2.76278 61.252 4.82583 62.538 7.36333C63.3823 9.02918 63.7075 10.7829 63.8571 12.624C64.0001 14.3842 64.0001 16.5344 64 19.0901V26.1671C64.0001 28.7227 64.0001 30.873 63.8571 32.6331C63.7075 34.4742 63.3823 36.228 62.538 37.8938C61.252 40.4313 59.1999 42.4944 56.6759 43.7873C55.0189 44.6361 53.2745 44.963 51.4432 45.1134C49.6925 45.2573 47.5537 45.2572 45.0116 45.2571H22.849C21.2922 45.2571 19.8874 44.3182 19.285 42.875C18.6826 41.4318 19.0003 39.7662 20.0909 38.6493L38.3929 19.9064L43.909 25.3507L32.0595 37.4857H44.8568C47.5945 37.4857 49.4154 37.4827 50.8138 37.3678C52.167 37.2567 52.7809 37.0604 53.1665 36.8629C54.236 36.315 55.1055 35.4409 55.6505 34.3657C55.847 33.978 56.0422 33.3608 56.1527 32.0003C56.267 30.5944 56.27 28.7638 56.27 26.0114V19.2457C56.27 16.4933 56.267 14.6628 56.1527 13.2569C56.0422 11.8964 55.847 11.2792 55.6505 10.8915C55.1055 9.81627 54.236 8.9421 53.1665 8.39425C52.7809 8.19671 52.167 8.00048 50.8138 7.88932C49.4154 7.77446 47.5945 7.77143 44.8568 7.77143H37.7462C34.9785 7.77143 33.1365 7.77449 31.7227 7.89119C30.3535 8.00421 29.7346 8.20376 29.3477 8.40378C28.2718 8.95991 27.4004 9.84667 26.8604 10.935C26.6662 11.3265 26.4753 11.9511 26.3795 13.3288C26.2807 14.7515 26.3001 16.6033 26.3339 19.3856L26.3726 22.5812L18.6432 22.676L18.6025 19.3236C18.5711 16.7393 18.5447 14.5664 18.6683 12.7874C18.7975 10.9275 19.1059 9.15372 19.9432 7.46612C21.2176 4.89756 23.274 2.80481 25.8131 1.49234C27.4814 0.630014 29.2419 0.298396 31.0901 0.14583C32.858 -0.000105834 35.0195 -5.6131e-05 37.5902 2.32933e-06Z" fill="url(#paint1_radial_1_75)"/>
<path fill-rule="evenodd" clip-rule="evenodd" d="M37.5902 2.32933e-06H45.0117C47.5537 -5.56707e-05 49.6925 -0.000105383 51.4432 0.143702C53.2745 0.294127 55.0189 0.621066 56.6759 1.46986C59.1999 2.76278 61.252 4.82583 62.538 7.36333C63.3823 9.02918 63.7075 10.7829 63.8571 12.624C64.0001 14.3842 64.0001 16.5344 64 19.0901V26.1671C64.0001 28.7227 64.0001 30.873 63.8571 32.6331C63.7075 34.4742 63.3823 36.228 62.538 37.8938C61.252 40.4313 59.1999 42.4944 56.6759 43.7873C55.0189 44.6361 53.2745 44.963 51.4432 45.1134C49.6925 45.2573 47.5537 45.2572 45.0116 45.2571H22.849C21.2922 45.2571 19.8874 44.3182 19.285 42.875C18.6826 41.4318 19.0003 39.7662 20.0909 38.6493L38.3929 19.9064L43.909 25.3507L32.0595 37.4857H44.8568C47.5945 37.4857 49.4154 37.4827 50.8138 37.3678C52.167 37.2567 52.7809 37.0604 53.1665 36.8629C54.236 36.315 55.1055 35.4409 55.6505 34.3657C55.847 33.978 56.0422 33.3608 56.1527 32.0003C56.267 30.5944 56.27 28.7638 56.27 26.0114V19.2457C56.27 16.4933 56.267 14.6628 56.1527 13.2569C56.0422 11.8964 55.847 11.2792 55.6505 10.8915C55.1055 9.81627 54.236 8.9421 53.1665 8.39425C52.7809 8.19671 52.167 8.00048 50.8138 7.88932C49.4154 7.77446 47.5945 7.77143 44.8568 7.77143H37.7462C34.9785 7.77143 33.1365 7.77449 31.7227 7.89119C30.3535 8.00421 29.7346 8.20376 29.3477 8.40378C28.2718 8.95991 27.4004 9.84667 26.8604 10.935C26.6662 11.3265 26.4753 11.9511 26.3795 13.3288C26.2807 14.7515 26.3001 16.6033 26.3339 19.3856L26.3726 22.5812L18.6432 22.676L18.6025 19.3236C18.5711 16.7393 18.5447 14.5664 18.6683 12.7874C18.7975 10.9275 19.1059 9.15372 19.9432 7.46612C21.2176 4.89756 23.274 2.80481 25.8131 1.49234C27.4814 0.630014 29.2419 0.298396 31.0901 0.14583C32.858 -0.000105834 35.0195 -5.6131e-05 37.5902 2.32933e-06Z" fill="url(#paint2_radial_1_75)"/>
<path fill-rule="evenodd" clip-rule="evenodd" d="M37.5902 2.32933e-06H45.0117C47.5537 -5.56707e-05 49.6925 -0.000105383 51.4432 0.143702C53.2745 0.294127 55.0189 0.621066 56.6759 1.46986C59.1999 2.76278 61.252 4.82583 62.538 7.36333C63.3823 9.02918 63.7075 10.7829 63.8571 12.624C64.0001 14.3842 64.0001 16.5344 64 19.0901V26.1671C64.0001 28.7227 64.0001 30.873 63.8571 32.6331C63.7075 34.4742 63.3823 36.228 62.538 37.8938C61.252 40.4313 59.1999 42.4944 56.6759 43.7873C55.0189 44.6361 53.2745 44.963 51.4432 45.1134C49.6925 45.2573 47.5537 45.2572 45.0116 45.2571H22.849C21.2922 45.2571 19.8874 44.3182 19.285 42.875C18.6826 41.4318 19.0003 39.7662 20.0909 38.6493L38.3929 19.9064L43.909 25.3507L32.0595 37.4857H44.8568C47.5945 37.4857 49.4154 37.4827 50.8138 37.3678C52.167 37.2567 52.7809 37.0604 53.1665 36.8629C54.236 36.315 55.1055 35.4409 55.6505 34.3657C55.847 33.978 56.0422 33.3608 56.1527 32.0003C56.267 30.5944 56.27 28.7638 56.27 26.0114V19.2457C56.27 16.4933 56.267 14.6628 56.1527 13.2569C56.0422 11.8964 55.847 11.2792 55.6505 10.8915C55.1055 9.81627 54.236 8.9421 53.1665 8.39425C52.7809 8.19671 52.167 8.00048 50.8138 7.88932C49.4154 7.77446 47.5945 7.77143 44.8568 7.77143H37.7462C34.9785 7.77143 33.1365 7.77449 31.7227 7.89119C30.3535 8.00421 29.7346 8.20376 29.3477 8.40378C28.2718 8.95991 27.4004 9.84667 26.8604 10.935C26.6662 11.3265 26.4753 11.9511 26.3795 13.3288C26.2807 14.7515 26.3001 16.6033 26.3339 19.3856L26.3726 22.5812L18.6432 22.676L18.6025 19.3236C18.5711 16.7393 18.5447 14.5664 18.6683 12.7874C18.7975 10.9275 19.1059 9.15372 19.9432 7.46612C21.2176 4.89756 23.274 2.80481 25.8131 1.49234C27.4814 0.630014 29.2419 0.298396 31.0901 0.14583C32.858 -0.000105834 35.0195 -5.6131e-05 37.5902 2.32933e-06Z" fill="url(#paint3_radial_1_75)"/>
<path fill-rule="evenodd" clip-rule="evenodd" d="M13.1863 56.1107C14.5847 56.2255 16.4055 56.2286 19.1432 56.2286H26.3731C28.8694 56.2286 30.5296 56.226 31.8084 56.1301C33.0478 56.037 33.6162 55.8723 33.9721 55.7081C35.2089 55.1378 36.201 54.1403 36.7684 52.8969C36.9317 52.5391 37.0955 51.9677 37.1881 50.7216C37.2835 49.4359 37.286 47.7668 37.286 45.2571H45.0161L45.0161 45.3989C45.0161 47.7296 45.0162 49.6906 44.8966 51.3002C44.7717 52.982 44.5008 54.5892 43.7944 56.1373C42.4555 59.0716 40.1139 61.4257 37.1952 62.7718C35.6554 63.4819 34.0567 63.7544 32.3839 63.8799C30.7829 64.0001 28.8323 64 26.5141 64L18.9883 64C16.4463 64.0001 14.3075 64.0001 12.5568 63.8563C10.7255 63.7059 8.98109 63.3789 7.32411 62.5301C4.80013 61.2372 2.74806 59.1742 1.46203 56.6367C0.617756 54.9708 0.292561 53.2171 0.142933 51.376C-0.000106812 49.6158 -5.72205e-05 47.4656 3.8147e-06 44.9099V37.8329C-5.72205e-05 35.2773 -0.000106812 33.127 0.142933 31.3669C0.292561 29.5258 0.61776 27.772 1.46203 26.1062C2.74806 23.5687 4.80013 21.5056 7.32411 20.2127C8.98109 19.3639 10.7255 19.037 12.5568 18.8865C14.3076 18.7427 16.4463 18.7428 18.9884 18.7429H41.151C43.2856 18.7429 45.0161 20.4825 45.0161 22.6286C45.0161 24.7746 43.2856 26.5143 41.151 26.5143H19.1432C16.4055 26.5143 14.5847 26.5173 13.1863 26.6322C11.833 26.7433 11.2191 26.9396 10.8335 27.1371C9.76398 27.6849 8.89447 28.5591 8.34954 29.6343C8.15305 30.022 7.95786 30.6392 7.84729 31.9997C7.73304 33.4056 7.73003 35.2362 7.73003 37.9886V44.7543C7.73003 47.5066 7.73304 49.3372 7.84729 50.7431C7.95786 52.1036 8.15305 52.7208 8.34954 53.1085C8.89447 54.1837 9.76398 55.0579 10.8335 55.6057C11.2191 55.8033 11.833 55.9995 13.1863 56.1107Z" fill="url(#paint4_linear_1_75)"/>
<path fill-rule="evenodd" clip-rule="evenodd" d="M13.1863 56.1107C14.5847 56.2255 16.4055 56.2286 19.1432 56.2286H26.3731C28.8694 56.2286 30.5296 56.226 31.8084 56.1301C33.0478 56.037 33.6162 55.8723 33.9721 55.7081C35.2089 55.1378 36.201 54.1403 36.7684 52.8969C36.9317 52.5391 37.0955 51.9677 37.1881 50.7216C37.2835 49.4359 37.286 47.7668 37.286 45.2571H45.0161L45.0161 45.3989C45.0161 47.7296 45.0162 49.6906 44.8966 51.3002C44.7717 52.982 44.5008 54.5892 43.7944 56.1373C42.4555 59.0716 40.1139 61.4257 37.1952 62.7718C35.6554 63.4819 34.0567 63.7544 32.3839 63.8799C30.7829 64.0001 28.8323 64 26.5141 64L18.9883 64C16.4463 64.0001 14.3075 64.0001 12.5568 63.8563C10.7255 63.7059 8.98109 63.3789 7.32411 62.5301C4.80013 61.2372 2.74806 59.1742 1.46203 56.6367C0.617756 54.9708 0.292561 53.2171 0.142933 51.376C-0.000106812 49.6158 -5.72205e-05 47.4656 3.8147e-06 44.9099V37.8329C-5.72205e-05 35.2773 -0.000106812 33.127 0.142933 31.3669C0.292561 29.5258 0.61776 27.772 1.46203 26.1062C2.74806 23.5687 4.80013 21.5056 7.32411 20.2127C8.98109 19.3639 10.7255 19.037 12.5568 18.8865C14.3076 18.7427 16.4463 18.7428 18.9884 18.7429H41.151C43.2856 18.7429 45.0161 20.4825 45.0161 22.6286C45.0161 24.7746 43.2856 26.5143 41.151 26.5143H19.1432C16.4055 26.5143 14.5847 26.5173 13.1863 26.6322C11.833 26.7433 11.2191 26.9396 10.8335 27.1371C9.76398 27.6849 8.89447 28.5591 8.34954 29.6343C8.15305 30.022 7.95786 30.6392 7.84729 31.9997C7.73304 33.4056 7.73003 35.2362 7.73003 37.9886V44.7543C7.73003 47.5066 7.73304 49.3372 7.84729 50.7431C7.95786 52.1036 8.15305 52.7208 8.34954 53.1085C8.89447 54.1837 9.76398 55.0579 10.8335 55.6057C11.2191 55.8033 11.833 55.9995 13.1863 56.1107Z" fill="url(#paint5_radial_1_75)"/>
<defs>
<linearGradient id="paint0_linear_1_75" x1="30.4946" y1="44.9057" x2="31.0064" y2="-0.0576942" gradientUnits="userSpaceOnUse">
<stop offset="0.43118" stop-color="#498FFD"/>
<stop offset="1" stop-color="#16D1D6"/>
</linearGradient>
<radialGradient id="paint1_radial_1_75" cx="0" cy="0" r="1" gradientTransform="matrix(28.138 -7.80079 7.8295 27.9474 18.0401 13.7026)" gradientUnits="userSpaceOnUse">
<stop stop-color="#18CFD7"/>
<stop offset="1" stop-color="#18CFD7" stop-opacity="0"/>
</radialGradient>
<radialGradient id="paint2_radial_1_75" cx="0" cy="0" r="1" gradientTransform="matrix(-9.68686 5.04757 -5.06615 -9.62123 35.1074 26.5509)" gradientUnits="userSpaceOnUse">
<stop stop-color="#4990FE"/>
<stop offset="0.353962" stop-color="#4990FE"/>
<stop offset="1" stop-color="#4990FE" stop-opacity="0"/>
</radialGradient>
<radialGradient id="paint3_radial_1_75" cx="0" cy="0" r="1" gradientTransform="matrix(13.8384 -14.225 14.2773 13.7446 21.7303 41.2348)" gradientUnits="userSpaceOnUse">
<stop stop-color="#4990FE"/>
<stop offset="0.405688" stop-color="#4990FE"/>
<stop offset="1" stop-color="#4990FE" stop-opacity="0"/>
</radialGradient>
<linearGradient id="paint4_linear_1_75" x1="45.2555" y1="64.1782" x2="45.4201" y2="18.2918" gradientUnits="userSpaceOnUse">
<stop stop-color="#2950FF"/>
<stop offset="0.821717" stop-color="#498FFD"/>
</linearGradient>
<radialGradient id="paint5_radial_1_75" cx="0" cy="0" r="1" gradientTransform="matrix(-12.4545 15.1427 -15.062 -12.2591 45.2555 44.9057)" gradientUnits="userSpaceOnUse">
<stop offset="0.337169" stop-color="#2950FF"/>
<stop offset="0.792226" stop-color="#2950FF" stop-opacity="0"/>
</radialGradient>
</defs>
</svg>
